<?xml version="1.0" encoding="UTF-8"?><svg id="b" xmlns="http://www.w3.org/2000/svg" viewBox="0 0 161.73 112.41"><defs><style>.d{fill:#6a4cff;}.e{fill:#d7263d;}.f{fill:#262626;}</style></defs><g id="c"><path class="f" d="M61.35,112.41c11.54-9.79,31.83-22.41,46.31-26.53,9.12-2.59,12.57-3.17,22.03-3.6,1.96-.09,3.56-.38,5.05-1.67,1.29-1.12,2.02-2.54,2.7-4.16l8.21-19.52,15.65-36.82c.7-1.64.56-3.42-.43-4.75-.6-.81-1.37-1.35-2.35-1.45l-7.83-.82-70.43,37.6-18.91,61.72Z"/><path class="d" d="M78.09,36.09c-5.28-6.17-14.05-10.14-21.91-12.07-5.67-1.39-11.34-2.06-17.2-2.07-4.3,0-8.43.5-12.6,1.2-2.56.42-4.08,2.22-4.86,4.57l-3,9.08-3.12,9.45-3.3,9.97-3.08,9.32-1.08,3.26-1.76,5.33-2.91,8.83L.1,92.58c-.34,1.02.2,2.07.82,2.66.73.69,1.62.73,2.64.54,7.9-1.5,15.84-1.6,23.8-.37,12.37,1.78,24.38,7.03,32.38,17l6.01-19.77,15.11-49.68c.71-2.15-1.25-5.09-2.78-6.87Z"/><path class="e" d="M152.87.93c-.81-.74-1.96-1-3.06-.91-3.57.3-6.95.91-10.45,1.8-19.55,4.96-38.81,16.6-51.41,32.4-1.9,2.38-3.51,4.76-4.95,7.46l-14.68,48.38-6.96,22.36c13.83-12.69,26.75-22.65,35.07-28.33,6.82-4.66,13.93-8.06,21.74-10,3.52-.88,6.55-1.49,7.72-1.58.92-.07,2.3-.48,3.39-1.13.84-.51,1.73-1.5,1.86-1.65.76-.84,2.46-5.21,2.46-5.21l15.94-47.09.02-.02,4.22-12.69c.45-1.35.11-2.84-.92-3.78Z"/></g></svg>